<svg width="305" height="229" viewBox="0 0 305 229" fill="none" xmlns="http://www.w3.org/2000/svg">
<path d="M133.438 229C133.438 229 114.375 229 114.375 209.917C114.375 190.833 133.438 133.583 209.688 133.583C285.938 133.583 305 190.833 305 209.917C305 229 285.938 229 285.938 229H133.438ZM209.688 114.5C224.855 114.5 239.4 108.468 250.125 97.7319C260.85 86.9954 266.875 72.4336 266.875 57.25C266.875 42.0664 260.85 27.5046 250.125 16.7681C239.4 6.03168 224.855 0 209.688 0C194.52 0 179.975 6.03168 169.25 16.7681C158.525 27.5046 152.5 42.0664 152.5 57.25C152.5 72.4336 158.525 86.9954 169.25 97.7319C179.975 108.468 194.52 114.5 209.688 114.5ZM99.43 229C96.6054 223.042 95.1961 216.511 95.3125 209.917C95.3125 184.059 108.275 157.438 132.218 138.927C120.269 135.233 107.817 133.43 95.3125 133.583C19.0625 133.583 0 190.833 0 209.917C0 229 19.0625 229 19.0625 229H99.43ZM85.7813 114.5C98.4205 114.5 110.542 109.474 119.479 100.527C128.417 91.5795 133.438 79.4447 133.438 66.7917C133.438 54.1386 128.417 42.0038 119.479 33.0568C110.542 24.1097 98.4205 19.0833 85.7813 19.0833C73.142 19.0833 61.0205 24.1097 52.0832 33.0568C43.1459 42.0038 38.125 54.1386 38.125 66.7917C38.125 79.4447 43.1459 91.5795 52.0832 100.527C61.0205 109.474 73.142 114.5 85.7813 114.5Z" fill="#E6E6E6"/>
</svg>
