<svg width="30" height="23" viewBox="0 0 30 23" fill="none" xmlns="http://www.w3.org/2000/svg">
<path d="M13.125 22.5C13.125 22.5 11.25 22.5 11.25 20.625C11.25 18.75 13.125 13.125 20.625 13.125C28.125 13.125 30 18.75 30 20.625C30 22.5 28.125 22.5 28.125 22.5H13.125ZM20.625 11.25C22.1168 11.25 23.5476 10.6574 24.6025 9.60248C25.6574 8.54758 26.25 7.11684 26.25 5.625C26.25 4.13316 25.6574 2.70242 24.6025 1.64752C23.5476 0.592632 22.1168 0 20.625 0C19.1332 0 17.7024 0.592632 16.6475 1.64752C15.5926 2.70242 15 4.13316 15 5.625C15 7.11684 15.5926 8.54758 16.6475 9.60248C17.7024 10.6574 19.1332 11.25 20.625 11.25ZM9.78 22.5C9.50217 21.9146 9.36355 21.2729 9.375 20.625C9.375 18.0844 10.65 15.4688 13.005 13.65C11.8297 13.2871 10.605 13.1099 9.375 13.125C1.875 13.125 0 18.75 0 20.625C0 22.5 1.875 22.5 1.875 22.5H9.78ZM8.4375 11.25C9.6807 11.25 10.873 10.7561 11.7521 9.87706C12.6311 8.99799 13.125 7.8057 13.125 6.5625C13.125 5.3193 12.6311 4.12701 11.7521 3.24794C10.873 2.36886 9.6807 1.875 8.4375 1.875C7.1943 1.875 6.00201 2.36886 5.12294 3.24794C4.24386 4.12701 3.75 5.3193 3.75 6.5625C3.75 7.8057 4.24386 8.99799 5.12294 9.87706C6.00201 10.7561 7.1943 11.25 8.4375 11.25Z" fill="#E6E6E6"/>
</svg>
