<svg width="26" height="21" viewBox="0 0 26 21" fill="none" xmlns="http://www.w3.org/2000/svg">
<path d="M2.3013 5.26016C4.7471 3.16016 6.67911 1.49976 11.9221 4.46216C14.4407 5.88456 16.4721 6.42216 18.1619 6.41936C21.1229 6.41936 23.0423 4.77296 24.7013 3.34916C24.9861 3.10144 25.1631 2.75256 25.195 2.37648C25.2269 2.0004 25.1111 1.62669 24.8721 1.33456C24.7555 1.19122 24.6114 1.0727 24.4482 0.986036C24.285 0.899369 24.1061 0.846308 23.9221 0.829992C23.738 0.813676 23.5526 0.834436 23.3767 0.891045C23.2008 0.947653 23.0381 1.03896 22.8981 1.15956C20.4537 3.26236 18.5203 4.92276 13.2773 1.95756C6.3501 -1.95264 3.1049 0.833365 0.498105 3.07336C0.213556 3.32128 0.0367313 3.67026 0.00510878 4.04633C-0.0265137 4.4224 0.0895517 4.79601 0.328705 5.08797C0.445356 5.23107 0.589529 5.34932 0.752691 5.43571C0.915852 5.52211 1.09469 5.5749 1.27861 5.59095C1.46254 5.60701 1.64781 5.58601 1.82348 5.52919C1.99914 5.47237 2.16162 5.38089 2.3013 5.26016ZM22.8981 8.30936C20.4537 10.4094 18.5203 12.0726 13.2773 9.10736C6.3501 5.19436 3.1049 7.98176 0.498105 10.2204C0.213556 10.4683 0.0367313 10.8173 0.00510878 11.1933C-0.0265137 11.5694 0.0895517 11.943 0.328705 12.235C0.445155 12.3783 0.589173 12.4968 0.752234 12.5834C0.915294 12.6701 1.09408 12.7231 1.27801 12.7394C1.46195 12.7557 1.64728 12.735 1.82305 12.6784C1.99882 12.6218 2.16144 12.5305 2.3013 12.41C4.7471 10.3086 6.67911 8.64816 11.9221 11.6092C14.4407 13.0344 16.4721 13.5692 18.1619 13.5692C21.1229 13.5692 23.0423 11.9228 24.7013 10.4962C24.9863 10.2489 25.1636 9.9002 25.1955 9.52424C25.2274 9.14829 25.1113 8.77472 24.8721 8.48297C24.7555 8.33955 24.6114 8.22101 24.4481 8.13435C24.2849 8.0477 24.1059 7.99471 23.9218 7.97852C23.7377 7.96233 23.5523 7.98327 23.3764 8.0401C23.2006 8.09694 23.0379 8.1885 22.8981 8.30936ZM22.8981 15.4578C20.4537 17.5606 18.5203 19.221 13.2773 16.2586C6.3501 12.3456 3.1049 15.1316 0.498105 17.3716C0.213556 17.6195 0.0367313 17.9685 0.00510878 18.3445C-0.0265137 18.7206 0.0895517 19.0942 0.328705 19.3862C0.445242 19.5294 0.589369 19.6478 0.752534 19.7343C0.9157 19.8208 1.09458 19.8737 1.27856 19.8898C1.46254 19.9058 1.64787 19.8848 1.82356 19.8278C1.99924 19.7709 2.16171 19.6793 2.3013 19.5584C4.7471 17.4584 6.67911 15.7994 11.9221 18.7604C14.4407 20.1828 16.4721 20.7204 18.1619 20.7204C21.1229 20.7204 23.0423 19.0712 24.7013 17.6474C24.9861 17.3996 25.1631 17.0508 25.195 16.6747C25.2269 16.2986 25.1111 15.9249 24.8721 15.6328C24.7552 15.4899 24.6109 15.3718 24.4477 15.2855C24.2846 15.1992 24.1058 15.1463 23.9219 15.13C23.738 15.1137 23.5528 15.1343 23.3769 15.1906C23.2011 15.2469 23.0383 15.3377 22.8981 15.4578Z" fill="#E6E6E6"/>
</svg>
